<svg width="1004" height="1023" xmlns="http://www.w3.org/2000/svg" xmlns:xlink="http://www.w3.org/1999/xlink" xml:space="preserve" overflow="hidden"><defs><clipPath id="clip0"><rect x="131" y="92" width="1004" height="1023"/></clipPath><clipPath id="clip1"><rect x="150" y="122" width="117" height="112"/></clipPath><clipPath id="clip2"><rect x="1005" y="947" width="122" height="112"/></clipPath><clipPath id="clip3"><rect x="398" y="342" width="121" height="113"/></clipPath><clipPath id="clip4"><rect x="541" y="561" width="111" height="112"/></clipPath><clipPath id="clip5"><rect x="1003" y="532" width="132" height="143"/></clipPath><clipPath id="clip6"><rect x="131" y="532" width="132" height="143"/></clipPath><clipPath id="clip7"><rect x="569" y="973" width="132" height="143"/></clipPath><clipPath id="clip8"><rect x="569" y="92" width="132" height="143"/></clipPath></defs><g clip-path="url(#clip0)" transform="translate(-131 -92)"><path d="M254.5 222.5 254.5 992.859" stroke="#000000" stroke-width="4.58333" stroke-miterlimit="8" fill="none" fill-rule="evenodd"/><path d="M380.5 220.5 380.5 990.19" stroke="#000000" stroke-width="4.58333" stroke-miterlimit="8" fill="none" fill-rule="evenodd"/><path d="M507.5 219.5 507.5 989.859" stroke="#000000" stroke-width="4.58333" stroke-miterlimit="8" fill="none" fill-rule="evenodd"/><path d="M634.5 219.5 634.5 989.859" stroke="#000000" stroke-width="4.58333" stroke-miterlimit="8" fill="none" fill-rule="evenodd"/><path d="M761.5 219.5 761.5 989.859" stroke="#000000" stroke-width="4.58333" stroke-miterlimit="8" fill="none" fill-rule="evenodd"/><path d="M887.5 219.5 887.5 989.859" stroke="#000000" stroke-width="4.58333" stroke-miterlimit="8" fill="none" fill-rule="evenodd"/><path d="M1014.5 219.5 1014.5 989.859" stroke="#000000" stroke-width="4.58333" stroke-miterlimit="8" fill="none" fill-rule="evenodd"/><path d="M0 0 763.9 0.000360892" stroke="#000000" stroke-width="4.58333" stroke-miterlimit="8" fill="none" fill-rule="evenodd" transform="matrix(-1 0 0 1 1018.4 219.5)"/><path d="M0 0 763.9 0.000360892" stroke="#000000" stroke-width="4.58333" stroke-miterlimit="8" fill="none" fill-rule="evenodd" transform="matrix(-1 0 0 1 1018.4 329.5)"/><path d="M0 0 763.9 0.000360892" stroke="#000000" stroke-width="4.58333" stroke-miterlimit="8" fill="none" fill-rule="evenodd" transform="matrix(-1 0 0 1 1018.4 438.5)"/><path d="M0 0 763.9 0.000360892" stroke="#000000" stroke-width="4.58333" stroke-miterlimit="8" fill="none" fill-rule="evenodd" transform="matrix(-1 0 0 1 1018.4 548.5)"/><path d="M0 0 763.9 0.000360892" stroke="#000000" stroke-width="4.58333" stroke-miterlimit="8" fill="none" fill-rule="evenodd" transform="matrix(-1 0 0 1 1018.4 657.5)"/><path d="M0 0 763.9 0.000360892" stroke="#000000" stroke-width="4.58333" stroke-miterlimit="8" fill="none" fill-rule="evenodd" transform="matrix(-1 0 0 1 1018.4 767.5)"/><path d="M0 0 763.9 0.000360892" stroke="#000000" stroke-width="4.58333" stroke-miterlimit="8" fill="none" fill-rule="evenodd" transform="matrix(-1 0 0 1 1018.4 877.5)"/><path d="M0 0 763.9 0.000360892" stroke="#000000" stroke-width="4.58333" stroke-miterlimit="8" fill="none" fill-rule="evenodd" transform="matrix(-1 0 0 1 1018.4 987.5)"/><path d="M240 219.5C240 212.044 246.044 206 253.5 206 260.956 206 267 212.044 267 219.5 267 226.956 260.956 233 253.5 233 246.044 233 240 226.956 240 219.5Z" fill-rule="evenodd"/><path d="M999 987C999 979.268 1005.27 973 1013 973 1020.73 973 1027 979.268 1027 987 1027 994.732 1020.73 1001 1013 1001 1005.27 1001 999 994.732 999 987Z" fill-rule="evenodd"/><path d="M621 658.5C621 651.044 627.044 645 634.5 645 641.956 645 648 651.044 648 658.5 648 665.956 641.956 672 634.5 672 627.044 672 621 665.956 621 658.5Z" fill-rule="evenodd"/><path d="M494 439C494 431.268 500.268 425 508 425 515.732 425 522 431.268 522 439 522 446.732 515.732 453 508 453 500.268 453 494 446.732 494 439Z" fill-rule="evenodd"/><g clip-path="url(#clip1)"><text font-family="Century Schoolbook,Century Schoolbook_MSFontService,sans-serif" font-weight="700" font-size="64" transform="matrix(1 0 0 1 183.39 202)">P</text></g><g clip-path="url(#clip2)"><text font-family="Century Schoolbook,Century Schoolbook_MSFontService,sans-serif" font-weight="700" font-size="64" transform="matrix(1 0 0 1 1038.47 1027)">Q</text></g><g clip-path="url(#clip3)"><text font-family="Century Schoolbook,Century Schoolbook_MSFontService,sans-serif" font-weight="700" font-size="64" transform="matrix(1 0 0 1 431.75 422)">R</text></g><g clip-path="url(#clip4)"><text font-family="Century Schoolbook,Century Schoolbook_MSFontService,sans-serif" font-weight="700" font-size="64" transform="matrix(1 0 0 1 574.836 641)">S</text></g><g clip-path="url(#clip5)"><text font-family="Yu Gothic,Yu Gothic_MSFontService,sans-serif" font-weight="400" font-size="64" transform="matrix(1 0 0 1 1036.32 625)">東</text></g><g clip-path="url(#clip6)"><text font-family="Yu Gothic,Yu Gothic_MSFontService,sans-serif" font-weight="400" font-size="64" transform="matrix(1 0 0 1 164.054 625)">西</text></g><g clip-path="url(#clip7)"><text font-family="Yu Gothic,Yu Gothic_MSFontService,sans-serif" font-weight="400" font-size="64" transform="matrix(1 0 0 1 602.336 1066)">南</text></g><g clip-path="url(#clip8)"><text font-family="Yu Gothic,Yu Gothic_MSFontService,sans-serif" font-weight="400" font-size="64" transform="matrix(1 0 0 1 602.336 185)">北</text></g><path d="M667.074 414.888 674.48 407.628 696.5 430.092 718.519 407.628 725.926 414.888 703.761 437.5 725.926 460.113 718.519 467.372 696.5 444.908 674.48 467.372 667.074 460.113 689.239 437.5Z" fill-rule="evenodd"/></g></svg>