<svg width="724" height="693" xmlns="http://www.w3.org/2000/svg" xmlns:xlink="http://www.w3.org/1999/xlink" xml:space="preserve" overflow="hidden"><defs><clipPath id="clip0"><rect x="470" y="257" width="724" height="693"/></clipPath><clipPath id="clip1"><rect x="769" y="491" width="131" height="143"/></clipPath><clipPath id="clip2"><rect x="529" y="690" width="142" height="143"/></clipPath><clipPath id="clip3"><rect x="629" y="302" width="136" height="143"/></clipPath><clipPath id="clip4"><rect x="1003" y="405" width="136" height="143"/></clipPath><clipPath id="clip5"><rect x="879" y="749" width="135" height="143"/></clipPath></defs><g clip-path="url(#clip0)" transform="translate(-470 -257)"><rect x="474.5" y="261.5" width="715" height="684" stroke="#000000" stroke-width="9.16667" stroke-miterlimit="8" fill="none"/><path d="M949.5 265.5 949.5 691.75" stroke="#000000" stroke-width="9.16667" stroke-miterlimit="8" fill="none" fill-rule="evenodd"/><path d="M715.5 516.5 715.5 942.75" stroke="#000000" stroke-width="9.16667" stroke-miterlimit="8" fill="none" fill-rule="evenodd"/><path d="M1189.87 722.5 715.5 667.5" stroke="#000000" stroke-width="9.16667" stroke-miterlimit="8" fill="none" fill-rule="evenodd"/><path d="M0 0 474.375 250.938" stroke="#000000" stroke-width="9.16667" stroke-miterlimit="8" fill="none" fill-rule="evenodd" transform="matrix(1 0 0 -1 474.5 639.437)"/><g clip-path="url(#clip1)"><text font-family="Bookman Old Style,Bookman Old Style_MSFontService,sans-serif" font-weight="300" font-size="92" transform="matrix(1 0 0 1 803 594)">A</text></g><g clip-path="url(#clip2)"><text font-family="Bookman Old Style,Bookman Old Style_MSFontService,sans-serif" font-weight="300" font-size="92" transform="matrix(1 0 0 1 562.375 793)">D</text></g><g clip-path="url(#clip3)"><text font-family="Bookman Old Style,Bookman Old Style_MSFontService,sans-serif" font-weight="300" font-size="92" transform="matrix(1 0 0 1 662.062 405)">C</text></g><g clip-path="url(#clip4)"><text font-family="Bookman Old Style,Bookman Old Style_MSFontService,sans-serif" font-weight="300" font-size="92" transform="matrix(1 0 0 1 1036.75 508)">B</text></g><g clip-path="url(#clip5)"><text font-family="Bookman Old Style,Bookman Old Style_MSFontService,sans-serif" font-weight="300" font-size="92" transform="matrix(1 0 0 1 913 852)">E</text></g></g></svg>