<svg width="1604" height="2204" xmlns="http://www.w3.org/2000/svg" xmlns:xlink="http://www.w3.org/1999/xlink" overflow="hidden"><defs><clipPath id="clip0"><rect x="1679" y="234" width="1604" height="2204"/></clipPath></defs><g clip-path="url(#clip0)" transform="translate(-1679 -234)"><path d="M1987.89 1325.16 2111.17 571.988" stroke="#000000" stroke-width="4.58333" stroke-miterlimit="8" fill="none" fill-rule="evenodd"/><text font-family="Calibri,Calibri_MSFontService,sans-serif" font-weight="400" font-size="119" transform="matrix(1 0 0 1 2233.97 606)">d</text><path d="M2419.37 571.987 2542.66 439.076" stroke="#000000" stroke-width="4.58333" stroke-miterlimit="8" fill="none" fill-rule="evenodd"/><text font-family="Calibri,Calibri_MSFontService,sans-serif" font-weight="400" font-size="119" transform="matrix(1 0 0 1 2665.34 473)">o</text><path d="M2850.86 439.075 2974.14 350.468" stroke="#000000" stroke-width="4.58333" stroke-miterlimit="8" fill="none" fill-rule="evenodd"/><text font-family="Calibri,Calibri_MSFontService,sans-serif" font-weight="400" font-size="119" transform="matrix(1 0 0 1 3096.82 384)">o</text><path d="M2850.86 439.076 2974.14 527.684" stroke="#000000" stroke-width="4.58333" stroke-miterlimit="8" fill="none" fill-rule="evenodd"/><text font-family="Calibri,Calibri_MSFontService,sans-serif" font-weight="400" font-size="119" transform="matrix(1 0 0 1 3107.46 561)">r</text><path d="M2419.37 571.988 2542.66 704.9" stroke="#000000" stroke-width="4.58333" stroke-miterlimit="8" fill="none" fill-rule="evenodd"/><text font-family="Calibri,Calibri_MSFontService,sans-serif" font-weight="400" font-size="119" transform="matrix(1 0 0 1 2675.98 738)">r</text><path d="M2851.5 705.808 2974.78 705.808" stroke="#000000" stroke-width="4.58333" stroke-miterlimit="8" fill="none" fill-rule="evenodd"/><text font-family="Calibri,Calibri_MSFontService,sans-serif" font-weight="400" font-size="119" transform="matrix(1 0 0 1 3096.82 738)">o</text><path d="M1988.5 1325.81 2111.78 1325.81" stroke="#000000" stroke-width="4.58333" stroke-miterlimit="8" fill="none" fill-rule="evenodd"/><text font-family="Calibri,Calibri_MSFontService,sans-serif" font-weight="400" font-size="119" transform="matrix(1 0 0 1 2233.85 1359)">o</text><path d="M2419.37 1325.16 2542.66 970.724" stroke="#000000" stroke-width="4.58333" stroke-miterlimit="8" fill="none" fill-rule="evenodd"/><text font-family="Calibri,Calibri_MSFontService,sans-serif" font-weight="400" font-size="119" transform="matrix(1 0 0 1 2665.45 1004)">d</text><path d="M2850.86 970.724 2974.14 882.116" stroke="#000000" stroke-width="4.58333" stroke-miterlimit="8" fill="none" fill-rule="evenodd"/><text font-family="Calibri,Calibri_MSFontService,sans-serif" font-weight="400" font-size="119" transform="matrix(1 0 0 1 3096.82 916)">o</text><path d="M2850.86 970.724 2974.14 1059.33" stroke="#000000" stroke-width="4.58333" stroke-miterlimit="8" fill="none" fill-rule="evenodd"/><text font-family="Calibri,Calibri_MSFontService,sans-serif" font-weight="400" font-size="119" transform="matrix(1 0 0 1 3107.46 1093)">r</text><path d="M2419.5 1325.81 2542.78 1325.81" stroke="#000000" stroke-width="4.58333" stroke-miterlimit="8" fill="none" fill-rule="evenodd"/><text font-family="Calibri,Calibri_MSFontService,sans-serif" font-weight="400" font-size="119" transform="matrix(1 0 0 1 2665.34 1359)">o</text><path d="M2850.86 1325.16 2974.14 1236.55" stroke="#000000" stroke-width="4.58333" stroke-miterlimit="8" fill="none" fill-rule="evenodd"/><text font-family="Calibri,Calibri_MSFontService,sans-serif" font-weight="400" font-size="119" transform="matrix(1 0 0 1 3096.93 1270)">d</text><path d="M2850.86 1325.16 2974.14 1413.76" stroke="#000000" stroke-width="4.58333" stroke-miterlimit="8" fill="none" fill-rule="evenodd"/><text font-family="Calibri,Calibri_MSFontService,sans-serif" font-weight="400" font-size="119" transform="matrix(1 0 0 1 3107.46 1447)">r</text><path d="M2419.37 1325.16 2542.66 1679.59" stroke="#000000" stroke-width="4.58333" stroke-miterlimit="8" fill="none" fill-rule="evenodd"/><text font-family="Calibri,Calibri_MSFontService,sans-serif" font-weight="400" font-size="119" transform="matrix(1 0 0 1 2675.98 1713)">r</text><path d="M2850.86 1679.59 2974.14 1590.98" stroke="#000000" stroke-width="4.58333" stroke-miterlimit="8" fill="none" fill-rule="evenodd"/><text font-family="Calibri,Calibri_MSFontService,sans-serif" font-weight="400" font-size="119" transform="matrix(1 0 0 1 3096.93 1625)">d</text><path d="M2850.86 1679.59 2974.14 1768.2" stroke="#000000" stroke-width="4.58333" stroke-miterlimit="8" fill="none" fill-rule="evenodd"/><text font-family="Calibri,Calibri_MSFontService,sans-serif" font-weight="400" font-size="119" transform="matrix(1 0 0 1 3096.82 1802)">o</text><path d="M1987.89 1325.16 2111.17 2078.32" stroke="#000000" stroke-width="4.58333" stroke-miterlimit="8" fill="none" fill-rule="evenodd"/><text font-family="Calibri,Calibri_MSFontService,sans-serif" font-weight="400" font-size="119" transform="matrix(1 0 0 1 2244.5 2112)">r</text><path d="M2419.37 2078.32 2542.66 1945.41" stroke="#000000" stroke-width="4.58333" stroke-miterlimit="8" fill="none" fill-rule="evenodd"/><text font-family="Calibri,Calibri_MSFontService,sans-serif" font-weight="400" font-size="119" transform="matrix(1 0 0 1 2665.45 1979)">d</text><path d="M2851.5 1945.81 2974.78 1945.81" stroke="#000000" stroke-width="4.58333" stroke-miterlimit="8" fill="none" fill-rule="evenodd"/><text font-family="Calibri,Calibri_MSFontService,sans-serif" font-weight="400" font-size="119" transform="matrix(1 0 0 1 3096.82 1979)">o</text><path d="M2419.37 2078.32 2542.66 2211.24" stroke="#000000" stroke-width="4.58333" stroke-miterlimit="8" fill="none" fill-rule="evenodd"/><text font-family="Calibri,Calibri_MSFontService,sans-serif" font-weight="400" font-size="119" transform="matrix(1 0 0 1 2665.34 2245)">o</text><path d="M2850.86 2211.24 2974.14 2122.63" stroke="#000000" stroke-width="4.58333" stroke-miterlimit="8" fill="none" fill-rule="evenodd"/><text font-family="Calibri,Calibri_MSFontService,sans-serif" font-weight="400" font-size="119" transform="matrix(1 0 0 1 3096.93 2156)">d</text><path d="M2850.86 2211.24 2974.14 2299.84" stroke="#000000" stroke-width="4.58333" stroke-miterlimit="8" fill="none" fill-rule="evenodd"/><text font-family="Calibri,Calibri_MSFontService,sans-serif" font-weight="400" font-size="119" transform="matrix(1 0 0 1 3096.82 2333)">o</text></g></svg>