<svg width="1319" height="3353" xmlns="http://www.w3.org/2000/svg" xmlns:xlink="http://www.w3.org/1999/xlink" overflow="hidden"><defs><clipPath id="clip0"><rect x="1679" y="215" width="1319" height="3353"/></clipPath></defs><g clip-path="url(#clip0)" transform="translate(-1679 -215)"><path d="M1971.22 1982.7 2063.01 564.355" stroke="#000000" stroke-width="4.58333" stroke-miterlimit="8" fill="none" fill-rule="evenodd"/><text font-family="Calibri,Calibri_MSFontService,sans-serif" font-weight="400" font-size="87" transform="matrix(1 0 0 1 2155.67 589)">1</text><path d="M2292.47 564.355 2384.25 300.476" stroke="#000000" stroke-width="4.58333" stroke-miterlimit="8" fill="none" fill-rule="evenodd"/><text font-family="Calibri,Calibri_MSFontService,sans-serif" font-weight="400" font-size="87" transform="matrix(1 0 0 1 2476.91 325)">2</text><path d="M2614.5 300.634 2706.28 300.634" stroke="#000000" stroke-width="4.58333" stroke-miterlimit="8" fill="none" fill-rule="evenodd"/><text font-family="Calibri,Calibri_MSFontService,sans-serif" font-weight="400" font-size="87" transform="matrix(1 0 0 1 2798.16 325)">6</text><path d="M2292.47 564.355 2384.25 432.416" stroke="#000000" stroke-width="4.58333" stroke-miterlimit="8" fill="none" fill-rule="evenodd"/><text font-family="Calibri,Calibri_MSFontService,sans-serif" font-weight="400" font-size="87" transform="matrix(1 0 0 1 2476.91 457)">3</text><path d="M2614.5 432.634 2706.28 432.634" stroke="#000000" stroke-width="4.58333" stroke-miterlimit="8" fill="none" fill-rule="evenodd"/><text font-family="Calibri,Calibri_MSFontService,sans-serif" font-weight="400" font-size="87" transform="matrix(1 0 0 1 2798.16 457)">5</text><path d="M2292.5 564.634 2384.28 564.634" stroke="#000000" stroke-width="4.58333" stroke-miterlimit="8" fill="none" fill-rule="evenodd"/><text font-family="Calibri,Calibri_MSFontService,sans-serif" font-weight="400" font-size="87" transform="matrix(1 0 0 1 2476.91 589)">4</text><path d="M2614.5 564.634 2706.28 564.634" stroke="#000000" stroke-width="4.58333" stroke-miterlimit="8" fill="none" fill-rule="evenodd"/><text font-family="Calibri,Calibri_MSFontService,sans-serif" font-weight="400" font-size="87" transform="matrix(1 0 0 1 2798.16 589)">4</text><path d="M2292.47 564.355 2384.25 696.295" stroke="#000000" stroke-width="4.58333" stroke-miterlimit="8" fill="none" fill-rule="evenodd"/><text font-family="Calibri,Calibri_MSFontService,sans-serif" font-weight="400" font-size="87" transform="matrix(1 0 0 1 2476.91 720)">5</text><path d="M2614.5 696.634 2706.28 696.634" stroke="#000000" stroke-width="4.58333" stroke-miterlimit="8" fill="none" fill-rule="evenodd"/><text font-family="Calibri,Calibri_MSFontService,sans-serif" font-weight="400" font-size="87" transform="matrix(1 0 0 1 2798.16 720)">3</text><path d="M2292.47 564.355 2384.25 828.234" stroke="#000000" stroke-width="4.58333" stroke-miterlimit="8" fill="none" fill-rule="evenodd"/><text font-family="Calibri,Calibri_MSFontService,sans-serif" font-weight="400" font-size="87" transform="matrix(1 0 0 1 2476.91 852)">6</text><path d="M2614.5 828.634 2706.28 828.634" stroke="#000000" stroke-width="4.58333" stroke-miterlimit="8" fill="none" fill-rule="evenodd"/><text font-family="Calibri,Calibri_MSFontService,sans-serif" font-weight="400" font-size="87" transform="matrix(1 0 0 1 2798.16 852)">2</text><path d="M1971.22 1982.7 2063.01 1290.02" stroke="#000000" stroke-width="4.58333" stroke-miterlimit="8" fill="none" fill-rule="evenodd"/><text font-family="Calibri,Calibri_MSFontService,sans-serif" font-weight="400" font-size="87" transform="matrix(1 0 0 1 2155.67 1314)">2</text><path d="M2292.47 1290.02 2384.25 960.173" stroke="#000000" stroke-width="4.58333" stroke-miterlimit="8" fill="none" fill-rule="evenodd"/><text font-family="Calibri,Calibri_MSFontService,sans-serif" font-weight="400" font-size="87" transform="matrix(1 0 0 1 2476.91 984)">1</text><path d="M2614.5 960.634 2706.28 960.634" stroke="#000000" stroke-width="4.58333" stroke-miterlimit="8" fill="none" fill-rule="evenodd"/><text font-family="Calibri,Calibri_MSFontService,sans-serif" font-weight="400" font-size="87" transform="matrix(1 0 0 1 2798.16 984)">6</text><path d="M2292.47 1290.02 2384.25 1092.11" stroke="#000000" stroke-width="4.58333" stroke-miterlimit="8" fill="none" fill-rule="evenodd"/><text font-family="Calibri,Calibri_MSFontService,sans-serif" font-weight="400" font-size="87" transform="matrix(1 0 0 1 2476.91 1116)">2</text><path d="M2614.5 1092.63 2706.28 1092.63" stroke="#000000" stroke-width="4.58333" stroke-miterlimit="8" fill="none" fill-rule="evenodd"/><text font-family="Calibri,Calibri_MSFontService,sans-serif" font-weight="400" font-size="87" transform="matrix(1 0 0 1 2798.16 1116)">5</text><path d="M2292.47 1290.02 2384.25 1224.05" stroke="#000000" stroke-width="4.58333" stroke-miterlimit="8" fill="none" fill-rule="evenodd"/><text font-family="Calibri,Calibri_MSFontService,sans-serif" font-weight="400" font-size="87" transform="matrix(1 0 0 1 2476.91 1248)">3</text><path d="M2614.5 1224.63 2706.28 1224.63" stroke="#000000" stroke-width="4.58333" stroke-miterlimit="8" fill="none" fill-rule="evenodd"/><text font-family="Calibri,Calibri_MSFontService,sans-serif" font-weight="400" font-size="87" transform="matrix(1 0 0 1 2798.16 1248)">4</text><path d="M2292.47 1290.02 2384.25 1355.99" stroke="#000000" stroke-width="4.58333" stroke-miterlimit="8" fill="none" fill-rule="evenodd"/><text font-family="Calibri,Calibri_MSFontService,sans-serif" font-weight="400" font-size="87" transform="matrix(1 0 0 1 2476.91 1380)">4</text><path d="M2614.5 1356.63 2706.28 1356.63" stroke="#000000" stroke-width="4.58333" stroke-miterlimit="8" fill="none" fill-rule="evenodd"/><text font-family="Calibri,Calibri_MSFontService,sans-serif" font-weight="400" font-size="87" transform="matrix(1 0 0 1 2798.16 1380)">3</text><path d="M2292.47 1290.02 2384.25 1487.93" stroke="#000000" stroke-width="4.58333" stroke-miterlimit="8" fill="none" fill-rule="evenodd"/><text font-family="Calibri,Calibri_MSFontService,sans-serif" font-weight="400" font-size="87" transform="matrix(1 0 0 1 2476.91 1512)">5</text><path d="M2614.5 1488.63 2706.28 1488.63" stroke="#000000" stroke-width="4.58333" stroke-miterlimit="8" fill="none" fill-rule="evenodd"/><text font-family="Calibri,Calibri_MSFontService,sans-serif" font-weight="400" font-size="87" transform="matrix(1 0 0 1 2798.16 1512)">2</text><path d="M2292.47 1290.02 2384.25 1619.87" stroke="#000000" stroke-width="4.58333" stroke-miterlimit="8" fill="none" fill-rule="evenodd"/><text font-family="Calibri,Calibri_MSFontService,sans-serif" font-weight="400" font-size="87" transform="matrix(1 0 0 1 2476.91 1644)">6</text><path d="M2614.5 1620.63 2706.28 1620.63" stroke="#000000" stroke-width="4.58333" stroke-miterlimit="8" fill="none" fill-rule="evenodd"/><text font-family="Calibri,Calibri_MSFontService,sans-serif" font-weight="400" font-size="87" transform="matrix(1 0 0 1 2798.16 1644)">1</text><path d="M1971.22 1982.7 2063.01 2015.69" stroke="#000000" stroke-width="4.58333" stroke-miterlimit="8" fill="none" fill-rule="evenodd"/><text font-family="Calibri,Calibri_MSFontService,sans-serif" font-weight="400" font-size="87" transform="matrix(1 0 0 1 2155.67 2040)">3</text><path d="M2292.47 2015.69 2384.25 1751.81" stroke="#000000" stroke-width="4.58333" stroke-miterlimit="8" fill="none" fill-rule="evenodd"/><text font-family="Calibri,Calibri_MSFontService,sans-serif" font-weight="400" font-size="87" transform="matrix(1 0 0 1 2476.91 1776)">1</text><path d="M2614.5 1752.63 2706.28 1752.63" stroke="#000000" stroke-width="4.58333" stroke-miterlimit="8" fill="none" fill-rule="evenodd"/><text font-family="Calibri,Calibri_MSFontService,sans-serif" font-weight="400" font-size="87" transform="matrix(1 0 0 1 2798.16 1776)">5</text><path d="M2292.47 2015.69 2384.25 1883.75" stroke="#000000" stroke-width="4.58333" stroke-miterlimit="8" fill="none" fill-rule="evenodd"/><text font-family="Calibri,Calibri_MSFontService,sans-serif" font-weight="400" font-size="87" transform="matrix(1 0 0 1 2476.91 1908)">2</text><path d="M2614.5 1884.63 2706.28 1884.63" stroke="#000000" stroke-width="4.58333" stroke-miterlimit="8" fill="none" fill-rule="evenodd"/><text font-family="Calibri,Calibri_MSFontService,sans-serif" font-weight="400" font-size="87" transform="matrix(1 0 0 1 2798.16 1908)">4</text><path d="M2292.5 2016.63 2384.28 2016.63" stroke="#000000" stroke-width="4.58333" stroke-miterlimit="8" fill="none" fill-rule="evenodd"/><text font-family="Calibri,Calibri_MSFontService,sans-serif" font-weight="400" font-size="87" transform="matrix(1 0 0 1 2476.91 2040)">3</text><path d="M2614.5 2016.63 2706.28 2016.63" stroke="#000000" stroke-width="4.58333" stroke-miterlimit="8" fill="none" fill-rule="evenodd"/><text font-family="Calibri,Calibri_MSFontService,sans-serif" font-weight="400" font-size="87" transform="matrix(1 0 0 1 2798.16 2040)">3</text><path d="M2292.47 2015.69 2384.25 2147.63" stroke="#000000" stroke-width="4.58333" stroke-miterlimit="8" fill="none" fill-rule="evenodd"/><text font-family="Calibri,Calibri_MSFontService,sans-serif" font-weight="400" font-size="87" transform="matrix(1 0 0 1 2476.91 2172)">4</text><path d="M2614.5 2147.63 2706.28 2147.63" stroke="#000000" stroke-width="4.58333" stroke-miterlimit="8" fill="none" fill-rule="evenodd"/><text font-family="Calibri,Calibri_MSFontService,sans-serif" font-weight="400" font-size="87" transform="matrix(1 0 0 1 2798.16 2172)">2</text><path d="M2292.47 2015.69 2384.25 2279.57" stroke="#000000" stroke-width="4.58333" stroke-miterlimit="8" fill="none" fill-rule="evenodd"/><text font-family="Calibri,Calibri_MSFontService,sans-serif" font-weight="400" font-size="87" transform="matrix(1 0 0 1 2476.91 2304)">5</text><path d="M2614.5 2279.63 2706.28 2279.63" stroke="#000000" stroke-width="4.58333" stroke-miterlimit="8" fill="none" fill-rule="evenodd"/><text font-family="Calibri,Calibri_MSFontService,sans-serif" font-weight="400" font-size="87" transform="matrix(1 0 0 1 2798.16 2304)">1</text><path d="M1971.22 1982.7 2063.01 2609.42" stroke="#000000" stroke-width="4.58333" stroke-miterlimit="8" fill="none" fill-rule="evenodd"/><text font-family="Calibri,Calibri_MSFontService,sans-serif" font-weight="400" font-size="87" transform="matrix(1 0 0 1 2155.67 2634)">4</text><path d="M2292.47 2609.42 2384.25 2411.51" stroke="#000000" stroke-width="4.58333" stroke-miterlimit="8" fill="none" fill-rule="evenodd"/><text font-family="Calibri,Calibri_MSFontService,sans-serif" font-weight="400" font-size="87" transform="matrix(1 0 0 1 2476.91 2436)">1</text><path d="M2614.5 2411.63 2706.28 2411.63" stroke="#000000" stroke-width="4.58333" stroke-miterlimit="8" fill="none" fill-rule="evenodd"/><text font-family="Calibri,Calibri_MSFontService,sans-serif" font-weight="400" font-size="87" transform="matrix(1 0 0 1 2798.16 2436)">4</text><path d="M2292.47 2609.42 2384.25 2543.45" stroke="#000000" stroke-width="4.58333" stroke-miterlimit="8" fill="none" fill-rule="evenodd"/><text font-family="Calibri,Calibri_MSFontService,sans-serif" font-weight="400" font-size="87" transform="matrix(1 0 0 1 2476.91 2568)">2</text><path d="M2614.5 2543.63 2706.28 2543.63" stroke="#000000" stroke-width="4.58333" stroke-miterlimit="8" fill="none" fill-rule="evenodd"/><text font-family="Calibri,Calibri_MSFontService,sans-serif" font-weight="400" font-size="87" transform="matrix(1 0 0 1 2798.16 2568)">3</text><path d="M2292.47 2609.42 2384.25 2675.39" stroke="#000000" stroke-width="4.58333" stroke-miterlimit="8" fill="none" fill-rule="evenodd"/><text font-family="Calibri,Calibri_MSFontService,sans-serif" font-weight="400" font-size="87" transform="matrix(1 0 0 1 2476.91 2700)">3</text><path d="M2614.5 2675.63 2706.28 2675.63" stroke="#000000" stroke-width="4.58333" stroke-miterlimit="8" fill="none" fill-rule="evenodd"/><text font-family="Calibri,Calibri_MSFontService,sans-serif" font-weight="400" font-size="87" transform="matrix(1 0 0 1 2798.16 2700)">2</text><path d="M2292.47 2609.42 2384.25 2807.33" stroke="#000000" stroke-width="4.58333" stroke-miterlimit="8" fill="none" fill-rule="evenodd"/><text font-family="Calibri,Calibri_MSFontService,sans-serif" font-weight="400" font-size="87" transform="matrix(1 0 0 1 2476.91 2831)">4</text><path d="M2614.5 2807.63 2706.28 2807.63" stroke="#000000" stroke-width="4.58333" stroke-miterlimit="8" fill="none" fill-rule="evenodd"/><text font-family="Calibri,Calibri_MSFontService,sans-serif" font-weight="400" font-size="87" transform="matrix(1 0 0 1 2798.16 2831)">1</text><path d="M1971.22 1982.7 2063.01 3071.2" stroke="#000000" stroke-width="4.58333" stroke-miterlimit="8" fill="none" fill-rule="evenodd"/><text font-family="Calibri,Calibri_MSFontService,sans-serif" font-weight="400" font-size="87" transform="matrix(1 0 0 1 2155.67 3095)">5</text><path d="M2292.47 3071.2 2384.25 2939.26" stroke="#000000" stroke-width="4.58333" stroke-miterlimit="8" fill="none" fill-rule="evenodd"/><text font-family="Calibri,Calibri_MSFontService,sans-serif" font-weight="400" font-size="87" transform="matrix(1 0 0 1 2476.91 2963)">1</text><path d="M2614.5 2939.63 2706.28 2939.63" stroke="#000000" stroke-width="4.58333" stroke-miterlimit="8" fill="none" fill-rule="evenodd"/><text font-family="Calibri,Calibri_MSFontService,sans-serif" font-weight="400" font-size="87" transform="matrix(1 0 0 1 2798.16 2963)">3</text><path d="M2292.5 3071.63 2384.28 3071.63" stroke="#000000" stroke-width="4.58333" stroke-miterlimit="8" fill="none" fill-rule="evenodd"/><text font-family="Calibri,Calibri_MSFontService,sans-serif" font-weight="400" font-size="87" transform="matrix(1 0 0 1 2476.91 3095)">2</text><path d="M2614.5 3071.63 2706.28 3071.63" stroke="#000000" stroke-width="4.58333" stroke-miterlimit="8" fill="none" fill-rule="evenodd"/><text font-family="Calibri,Calibri_MSFontService,sans-serif" font-weight="400" font-size="87" transform="matrix(1 0 0 1 2798.16 3095)">2</text><path d="M2292.47 3071.2 2384.25 3203.14" stroke="#000000" stroke-width="4.58333" stroke-miterlimit="8" fill="none" fill-rule="evenodd"/><text font-family="Calibri,Calibri_MSFontService,sans-serif" font-weight="400" font-size="87" transform="matrix(1 0 0 1 2476.91 3227)">1</text><path d="M2614.5 3203.63 2706.28 3203.63" stroke="#000000" stroke-width="4.58333" stroke-miterlimit="8" fill="none" fill-rule="evenodd"/><text font-family="Calibri,Calibri_MSFontService,sans-serif" font-weight="400" font-size="87" transform="matrix(1 0 0 1 2798.16 3227)">3</text><path d="M1971.22 1982.7 2063.01 3401.05" stroke="#000000" stroke-width="4.58333" stroke-miterlimit="8" fill="none" fill-rule="evenodd"/><text font-family="Calibri,Calibri_MSFontService,sans-serif" font-weight="400" font-size="87" transform="matrix(1 0 0 1 2155.67 3425)">6</text><path d="M2292.47 3401.05 2384.25 3335.08" stroke="#000000" stroke-width="4.58333" stroke-miterlimit="8" fill="none" fill-rule="evenodd"/><text font-family="Calibri,Calibri_MSFontService,sans-serif" font-weight="400" font-size="87" transform="matrix(1 0 0 1 2476.91 3359)">1</text><path d="M2614.5 3335.63 2706.28 3335.63" stroke="#000000" stroke-width="4.58333" stroke-miterlimit="8" fill="none" fill-rule="evenodd"/><text font-family="Calibri,Calibri_MSFontService,sans-serif" font-weight="400" font-size="87" transform="matrix(1 0 0 1 2798.16 3359)">2</text><path d="M2292.47 3401.05 2384.25 3467.02" stroke="#000000" stroke-width="4.58333" stroke-miterlimit="8" fill="none" fill-rule="evenodd"/><text font-family="Calibri,Calibri_MSFontService,sans-serif" font-weight="400" font-size="87" transform="matrix(1 0 0 1 2476.91 3491)">2</text><path d="M2614.5 3467.63 2706.28 3467.63" stroke="#000000" stroke-width="4.58333" stroke-miterlimit="8" fill="none" fill-rule="evenodd"/><text font-family="Calibri,Calibri_MSFontService,sans-serif" font-weight="400" font-size="87" transform="matrix(1 0 0 1 2798.16 3491)">1</text></g></svg>