<svg width="1604" height="1324" xmlns="http://www.w3.org/2000/svg" xmlns:xlink="http://www.w3.org/1999/xlink" overflow="hidden"><defs><clipPath id="clip0"><rect x="2387" y="797" width="1604" height="1324"/></clipPath></defs><g clip-path="url(#clip0)" transform="translate(-2387 -797)"><path d="M2695.95 1459.22 2819.25 1104.74" stroke="#000000" stroke-width="4.58333" stroke-miterlimit="8" fill="none" fill-rule="evenodd"/><text font-family="Calibri,Calibri_MSFontService,sans-serif" font-weight="400" font-size="119" transform="matrix(1 0 0 1 2944.83 1138)">a</text><path d="M3127.49 1104.74 3250.79 1016.12" stroke="#000000" stroke-width="4.58333" stroke-miterlimit="8" fill="none" fill-rule="evenodd"/><text font-family="Calibri,Calibri_MSFontService,sans-serif" font-weight="400" font-size="119" transform="matrix(1 0 0 1 3379.71 1050)">c</text><path d="M3559.5 1016.28 3682.8 1016.28" stroke="#000000" stroke-width="4.58333" stroke-miterlimit="8" fill="none" fill-rule="evenodd"/><text font-family="Calibri,Calibri_MSFontService,sans-serif" font-weight="400" font-size="119" transform="matrix(1 0 0 1 3805.14 1050)">p</text><path d="M3127.49 1104.74 3250.79 1193.36" stroke="#000000" stroke-width="4.58333" stroke-miterlimit="8" fill="none" fill-rule="evenodd"/><text font-family="Calibri,Calibri_MSFontService,sans-serif" font-weight="400" font-size="119" transform="matrix(1 0 0 1 3373.6 1227)">p</text><path d="M3559.5 1194.28 3682.8 1194.28" stroke="#000000" stroke-width="4.58333" stroke-miterlimit="8" fill="none" fill-rule="evenodd"/><text font-family="Calibri,Calibri_MSFontService,sans-serif" font-weight="400" font-size="119" transform="matrix(1 0 0 1 3811.25 1227)">c</text><path d="M2696.5 1459.28 2819.8 1459.28" stroke="#000000" stroke-width="4.58333" stroke-miterlimit="8" fill="none" fill-rule="evenodd"/><text font-family="Calibri,Calibri_MSFontService,sans-serif" font-weight="400" font-size="119" transform="matrix(1 0 0 1 2948.17 1493)">c</text><path d="M3127.49 1459.22 3250.79 1370.6" stroke="#000000" stroke-width="4.58333" stroke-miterlimit="8" fill="none" fill-rule="evenodd"/><text font-family="Calibri,Calibri_MSFontService,sans-serif" font-weight="400" font-size="119" transform="matrix(1 0 0 1 3376.37 1404)">a</text><path d="M3559.5 1371.28 3682.8 1371.28" stroke="#000000" stroke-width="4.58333" stroke-miterlimit="8" fill="none" fill-rule="evenodd"/><text font-family="Calibri,Calibri_MSFontService,sans-serif" font-weight="400" font-size="119" transform="matrix(1 0 0 1 3805.14 1404)">p</text><path d="M3127.49 1459.22 3250.79 1547.84" stroke="#000000" stroke-width="4.58333" stroke-miterlimit="8" fill="none" fill-rule="evenodd"/><text font-family="Calibri,Calibri_MSFontService,sans-serif" font-weight="400" font-size="119" transform="matrix(1 0 0 1 3373.6 1581)">p</text><path d="M3559.5 1548.28 3682.8 1548.28" stroke="#000000" stroke-width="4.58333" stroke-miterlimit="8" fill="none" fill-rule="evenodd"/><text font-family="Calibri,Calibri_MSFontService,sans-serif" font-weight="400" font-size="119" transform="matrix(1 0 0 1 3807.91 1581)">a</text><path d="M2695.95 1459.22 2819.25 1813.7" stroke="#000000" stroke-width="4.58333" stroke-miterlimit="8" fill="none" fill-rule="evenodd"/><text font-family="Calibri,Calibri_MSFontService,sans-serif" font-weight="400" font-size="119" transform="matrix(1 0 0 1 2942.07 1847)">p</text><path d="M3127.49 1813.7 3250.79 1725.08" stroke="#000000" stroke-width="4.58333" stroke-miterlimit="8" fill="none" fill-rule="evenodd"/><text font-family="Calibri,Calibri_MSFontService,sans-serif" font-weight="400" font-size="119" transform="matrix(1 0 0 1 3376.37 1759)">a</text><path d="M3559.5 1725.28 3682.8 1725.28" stroke="#000000" stroke-width="4.58333" stroke-miterlimit="8" fill="none" fill-rule="evenodd"/><text font-family="Calibri,Calibri_MSFontService,sans-serif" font-weight="400" font-size="119" transform="matrix(1 0 0 1 3811.25 1759)">c</text><path d="M3127.49 1813.7 3250.79 1902.32" stroke="#000000" stroke-width="4.58333" stroke-miterlimit="8" fill="none" fill-rule="evenodd"/><text font-family="Calibri,Calibri_MSFontService,sans-serif" font-weight="400" font-size="119" transform="matrix(1 0 0 1 3379.71 1936)">c</text><path d="M3559.5 1903.28 3682.8 1903.28" stroke="#000000" stroke-width="4.58333" stroke-miterlimit="8" fill="none" fill-rule="evenodd"/><text font-family="Calibri,Calibri_MSFontService,sans-serif" font-weight="400" font-size="119" transform="matrix(1 0 0 1 3807.91 1936)">a</text></g></svg>